<svg width="44" height="56" viewBox="0 0 44 56" fill="none" xmlns="http://www.w3.org/2000/svg">
<g clip-path="url(#clip0_8_14)">
<path d="M10.2839 40.0415C10.4721 41.2129 12.1149 42.4507 12.7691 43.55C13.9328 45.5084 13.7563 46.6939 13.7519 48.7965C13.7461 51.0827 13.6347 53.3534 13.5927 55.6354C13.3524 55.7583 13.0904 55.7838 12.8227 55.8035C8.98412 56.0762 4.81557 55.5817 0.940834 55.8035C0.202651 55.7513 -0.0202506 54.936 0.0014606 54.3185V22.372L0.156334 21.3928C6.47575 14.7983 13.1903 8.48925 19.695 2.03467C20.3333 1.40164 21.4681 -0.486125 22.5218 0.117226L28.0176 5.49086C28.4056 5.92607 28.6053 6.55061 28.6646 7.12005C29.0106 10.4717 28.8485 14.3179 28.9498 17.7218C29.0352 20.5888 29.468 23.5999 29.2436 26.4753C28.8181 31.9026 24.1212 33.3298 24.6075 39.9059C24.855 43.2476 27.6905 49.3942 31.8779 46.0355C34.7279 43.7492 35.0405 38.24 33.9173 35.055C33.0662 32.6416 30.9501 31.045 30.2655 28.5878C29.591 26.1673 30.0715 22.9061 30.1178 20.4065C30.1757 17.329 29.9731 13.6566 30.2597 10.654C30.3654 9.54617 30.7344 8.50762 31.9894 9.38509C35.2909 13.3302 39.995 16.679 43.2879 20.5393C43.5571 20.8544 43.8234 21.1737 43.9783 21.5609L44 55.0108C43.9074 55.5888 43.5108 55.8163 42.9304 55.8035C34.0099 55.3146 24.4006 56.4309 15.5612 55.8035C15.2934 55.7852 15.0314 55.7583 14.7912 55.6354C14.6797 53.7349 14.6812 51.8316 14.6319 49.9269C14.5726 47.5983 14.1963 45.8984 15.47 43.6927C16.0707 42.6513 18.1 40.902 18.1 39.7603V26.9727H17.6657V36.3691C17.6657 36.6192 17.0361 37.3554 16.6916 37.4063C16.3109 37.4628 15.6393 36.94 15.6393 36.6517V26.9727H15.2051V36.5104C15.2051 37.1647 14.3063 37.6578 13.6795 37.1505C13.584 37.0728 13.1787 36.4144 13.1787 36.3691V26.9727H12.7445V36.3691C12.7445 37.2932 11.0409 37.9037 10.75 36.6207L10.6935 27.0674L10.2839 26.8314V40.0429V40.0415ZM0.8757 21.6725V54.878C1.00307 55.0801 1.16374 55.073 1.37506 55.097C2.67629 55.2468 4.16423 54.967 5.42927 54.943C7.91448 54.8964 10.4069 54.9897 12.8907 54.9501C12.5433 51.4218 13.9763 47.1362 12.0816 43.94C10.9873 42.0932 9.61809 41.9109 9.41111 39.3407C9.09558 35.4309 9.66296 31.1297 9.40967 27.1776C9.43717 25.6148 11.4621 25.7519 11.5301 27.2539C11.5866 30.2297 11.4592 33.2535 11.52 36.2278C11.5316 36.8029 11.8775 36.4808 11.8775 36.3691V26.902C11.8775 26.8625 12.319 26.3312 12.3986 26.2817C12.8719 25.9864 13.1643 26.0811 13.5493 26.4004C14.2831 27.008 13.8938 27.22 13.8967 27.8855C13.9053 30.1859 13.6101 33.6746 13.9314 35.8068C13.9618 36.006 14.0964 36.5288 14.3367 36.5811V27.0433C14.3367 27.0024 14.6956 26.4075 14.7752 26.3425C15.3687 25.8479 16.007 26.2054 16.3327 26.7904L16.5092 36.5811C16.6019 36.591 16.7973 36.3932 16.7973 36.3691V27.0433C16.7973 26.9515 17.3169 26.3298 17.4399 26.2591C18.1506 25.8536 18.7469 26.3835 18.9612 27.0504C18.7498 30.9121 19.268 35.0946 18.9742 38.9182C18.7035 42.4479 15.5988 43.2391 15.3441 46.8197C15.1516 49.5199 15.6625 52.2484 15.4946 54.9515L43.1243 55.0758C43.4008 54.5389 43.1431 54.1094 43.1345 53.6134C42.9955 45.7854 43.2228 37.8584 43.2922 30.0163C43.3168 27.2101 43.3935 24.3473 43.1142 21.5694L31.4162 9.94322C31.3192 9.8104 31.1687 10.0209 31.1455 10.1057C31.0109 10.5932 31.1571 11.6134 31.1252 12.2054C31.0384 13.8106 31.0326 15.4002 30.9877 17.0167C30.8966 20.3443 30.1352 26.3934 31.3901 29.3296C32.2296 31.2936 33.8594 32.547 34.6396 34.7767C35.9394 38.4929 35.4255 46.1641 30.8372 47.5318C25.2531 49.1978 23.5697 41.2115 23.8911 37.3597C24.2761 32.7646 28.0958 30.9347 28.3824 26.6251C28.7008 21.8548 28.1682 16.2918 27.9424 11.4975C27.8642 9.82312 28.0104 8.136 27.7311 6.47431L22.0572 0.856225L0.8757 21.6725Z" fill="black"/>
</g>
<defs>
<clipPath id="clip0_8_14">
<rect width="44" height="56" fill="white"/>
</clipPath>
</defs>
</svg>
